/vscmnt/brussel_pixiu_data/_data_brussel/112/vsc11236/PredSimResults/SUBJ04opt3D/weighted/expIG/worker_05.mot
version=1
nRows=11
nColumns=50
inDegrees=yes
endheader
                time	         pelvis_tilt	         pelvis_list	     pelvis_rotation	           pelvis_tx	           pelvis_ty	           pelvis_tz	       hip_flexion_r	     hip_adduction_r	      hip_rotation_r	        knee_angle_r	       ankle_angle_r	         mtp_angle_r	       hip_flexion_l	     hip_adduction_l	      hip_rotation_l	        knee_angle_l	       ankle_angle_l	         mtp_angle_l	    lumbar_extension	      lumbar_bending	     lumbar_rotation	 ercspn_r/activation	 intobl_r/activation	 extobl_r/activation	    abd_r/activation	    add_r/activation	hamstrings_r/activation	bifemsh_r/activation	glut_max_r/activation	iliopsoas_r/activation	rect_fem_r/activation	  vasti_r/activation	gastroc_r/activation	 soleus_r/activation	tib_ant_r/activation	 ercspn_l/activation	 intobl_l/activation	 extobl_l/activation	    abd_l/activation	    add_l/activation	hamstrings_l/activation	bifemsh_l/activation	glut_max_l/activation	iliopsoas_l/activation	rect_fem_l/activation	  vasti_l/activation	gastroc_l/activation	 soleus_l/activation	tib_ant_l/activation	
          1.99686546	         -1.13495224	         -0.31793180	         -6.79710478	          1.71730430	          0.88549200	          0.00871764	        -12.03874315	          0.11049468	         -5.87793825	         -6.24481620	         14.49904442	         16.69272624	         27.39943885	         -2.16974202	         -6.33445466	         -9.52231972	          3.98711796	          0.23505392	        -14.25982874	          4.47255314	          8.09739495	          0.01001102	          0.01000116	          0.01000161	          0.09063037	          0.01002103	          0.03055798	          0.35207814	          0.01952896	          0.01609136	          0.01001014	          0.01000686	          0.28575616	          0.24613626	          0.01494826	          0.05795172	          0.24422290	          0.02303821	          0.01001133	          0.26386328	          0.06458401	          0.03470866	          0.01220854	          0.18739446	          0.03804615	          0.04996634	          0.01000369	          0.01000130	          0.34306428	
          2.01017790	         -1.24005388	         -0.31705647	         -6.55971639	          1.73198562	          0.88307317	          0.00824099	        -12.72144395	          0.04606468	         -6.51343020	         -6.70573194	         14.49399971	         17.98857035	         27.53789535	         -1.93814184	         -6.24377295	        -11.05707163	          3.84269674	          0.23282478	        -13.77319663	          3.82885165	          8.22978383	          0.02843659	          0.01000103	          0.01000100	          0.07417388	          0.01001871	          0.02502439	          0.34390341	          0.01598498	          0.01787631	          0.01085362	          0.01000546	          0.28657783	          0.25926173	          0.01223414	          0.04743700	          0.22478087	          0.01885519	          0.01000041	          0.36243493	          0.06998018	          0.02871718	          0.01000249	          0.15336704	          0.03113814	          0.04089506	          0.01496949	          0.01836056	          0.33013756	
          2.02349034	         -1.32985272	         -0.25869125	         -6.28978054	          1.74712941	          0.88073715	          0.00774044	        -13.36697055	         -0.07921262	         -7.18985485	         -7.31519216	         14.42111055	         19.37791534	         27.57698072	         -1.70189735	         -6.03194929	        -12.68013873	          3.68923828	          0.22430463	        -13.24024696	          3.09338267	          8.33805343	          0.02327616	          0.01000129	          0.01000362	          0.06070548	          0.01002540	          0.04419741	          0.31507684	          0.01435081	          0.01463460	          0.01000706	          0.01000679	          0.27678025	          0.26617704	          0.01001300	          0.03882459	          0.22791107	          0.01543186	          0.01000404	          0.29664460	          0.07904579	          0.02352864	          0.01361702	          0.12551820	          0.02548441	          0.03347601	          0.01225661	          0.01502811	          0.34944515	
          2.03680277	         -1.40590443	         -0.12842593	         -5.97994465	          1.76256082	          0.87863033	          0.00715601	        -13.91748257	         -0.28752568	         -7.91679809	         -8.15193356	         14.26217352	         20.86122162	         27.54083781	         -1.41244991	         -5.90545876	        -14.15275204	          3.32810056	          0.21405355	        -12.68410797	          2.25740486	          8.41212228	          0.02001573	          0.01000096	          0.01000281	          0.04968264	          0.01002195	          0.05005827	          0.26372173	          0.01250380	          0.01198587	          0.01000478	          0.01000435	          0.24637057	          0.26404449	          0.01000096	          0.03177659	          0.18655878	          0.01263028	          0.01000698	          0.24320652	          0.09154132	          0.01928281	          0.01116376	          0.10272623	          0.02085730	          0.09459911	          0.01003601	          0.01230029	          0.37278943	
          2.05011521	         -1.46826508	          0.06653593	         -5.63295186	          1.77817383	          0.87690607	          0.00647278	        -14.33430146	         -0.57981560	         -8.69423071	         -9.26945561	         13.97834808	         22.43035184	         27.42597644	         -1.07492243	         -5.93902778	        -15.49155019	          2.93731321	          0.19509702	        -12.12305046	          1.33497379	          8.44790801	          0.03168642	          0.01000106	          0.01000313	          0.04066131	          0.01002469	          0.06043679	          0.21585112	          0.01626461	          0.01002291	          0.01000420	          0.01000363	          0.20163557	          0.25326751	          0.01000107	          0.02600983	          0.15268364	          0.01033793	          0.01685182	          0.20293346	          0.09393257	          0.01580622	          0.01161088	          0.08407292	          0.01707048	          0.17726317	          0.01000982	          0.01006866	          0.39636734	
          2.06342765	         -1.51662786	          0.31801178	         -5.25704887	          1.79391017	          0.87572424	          0.00568568	        -14.58958356	         -0.95822467	         -9.52072961	        -10.70387321	         13.51291677	         24.08050032	         27.17630435	         -0.69780278	         -6.13460598	        -16.64563301	          2.70621308	          0.17251827	        -11.56733457	          0.34403731	          8.44423190	          0.05723403	          0.01000123	          0.01000248	          0.03327807	          0.01003198	          0.06595439	          0.17666284	          0.02048300	          0.01002447	          0.01000380	          0.01000308	          0.16502219	          0.22842237	          0.01000098	          0.02130262	          0.12495918	          0.01000367	          0.04418497	          0.18425785	          0.09337933	          0.01296192	          0.01008095	          0.06880677	          0.01397147	          0.23469311	          0.01002152	          0.01001334	          0.40329787	
          2.07674008	         -1.55189213	          0.61161346	         -4.86150180	          1.80964613	          0.87524835	          0.00478908	        -14.63978958	         -1.42219945	        -10.38981703	        -12.50765235	         12.80240337	         25.80880775	         26.77192806	         -0.28748267	         -6.44547197	        -17.59031636	          2.69943407	          0.15316418	        -11.03241941	         -0.69064942	          8.40489472	          0.07646162	          0.01000155	          0.01000225	          0.02723549	          0.01003526	          0.07848088	          0.14458806	          0.02729380	          0.01002153	          0.01000310	          0.01000255	          0.13505698	          0.18694590	          0.01000090	          0.02333687	          0.10226889	          0.01000585	          0.06960338	          0.16631825	          0.09374431	          0.01066139	          0.01007322	          0.05631270	          0.01143568	          0.25685769	          0.01001304	          0.01000765	          0.39656227	
          2.09005252	         -1.57484817	          0.92739136	         -4.45677059	          1.82524322	          0.87554222	          0.00378592	        -14.44145652	         -1.96751700	        -11.29232300	        -14.73562556	         11.81271219	         27.58532902	         26.22900565	          0.14822331	         -6.79705637	        -18.34193549	          2.91733194	          0.14984497	        -10.53412046	         -1.74087579	          8.33457191	          0.07142243	          0.01000369	          0.01000220	          0.02229015	          0.09821018	          0.10934885	          0.11833692	          0.02240008	          0.01001144	          0.01000244	          0.01000267	          0.11053291	          0.15299967	          0.01000080	          0.02422211	          0.08369877	          0.01001347	          0.08901873	          0.17161472	          0.09523749	          0.01035143	          0.01002411	          0.04608735	          0.01000309	          0.27136263	          0.01001266	          0.01000714	          0.36703375	
          2.10336496	         -1.58647361	          1.24025043	         -4.05555413	          1.84056764	          0.87658076	          0.00269529	        -13.95651092	         -2.58621284	        -12.20568632	        -17.42871742	         10.51252828	         29.36715193	         25.56146416	          0.59966356	         -7.09827192	        -18.90096275	          3.32368597	          0.20268040	        -10.08770882	         -2.77656083	          8.23795930	          0.06289577	          0.01000918	          0.01000237	          0.01824278	          0.17073379	          0.12032621	          0.09685371	          0.01833365	          0.01001005	          0.01000198	          0.01000188	          0.09046201	          0.12521741	          0.01000080	          0.02469245	          0.06850072	          0.01005119	          0.10215565	          0.16958480	          0.09714898	          0.01006907	          0.01014031	          0.03771876	          0.01000358	          0.27439883	          0.01002099	          0.01001550	          0.33133906	
          2.11667739	         -1.58712796	          1.51693566	         -3.66543776	          1.85552559	          0.87827430	          0.00154091	        -13.17168718	         -3.25887227	        -13.11023448	        -20.58413140	          8.88892023	         31.03723252	         24.77056248	          1.04204672	         -7.29221038	        -19.23500668	          3.76828328	          0.33689532	         -9.70390989	         -3.75912366	          8.11486394	          0.05787736	          0.01007258	          0.01000266	          0.01493037	          0.19977148	          0.12929731	          0.07927720	          0.01500505	          0.01001022	          0.01000172	          0.01000122	          0.07403567	          0.10247994	          0.01000074	          0.02583629	          0.05606249	          0.01233895	          0.11035045	          0.17083806	          0.10030325	          0.01010590	          0.01004423	          0.03086978	          0.01000307	          0.26480355	          0.01000907	          0.01000491	          0.29672154	
          2.12998983	         -1.57630994	          1.72404073	         -3.28976236	          1.87006708	          0.88048072	          0.00034615	        -12.09785035	         -3.96104557	        -13.99167909	        -24.15870086	          6.96234670	         32.39471415	         23.86678727	          1.43604754	         -7.38338999	        -19.35169120	          4.19350959	          0.55966549	         -9.38759967	         -4.64936444	          7.96092150	          0.05080126	          0.01003781	          0.01000335	          0.01221948	          0.21432226	          0.11141542	          0.07505902	          0.01228074	          0.01001355	          0.01000141	          0.01000066	          0.06059212	          0.08387124	          0.01000130	          0.02677541	          0.04588304	          0.01017997	          0.11575843	          0.15781891	          0.10133051	          0.01004617	          0.01495787	          0.02526448	          0.01000308	          0.25162996	          0.01000905	          0.01000627	          0.26436484	
